HIERARCHY
ROOT Hips
{
  OFFSET 52.2044 88.4352 165.029
  CHANNELS 6 Xposition Yposition Zposition Zrotation Xrotation Yrotation
  JOINT ToSpine
  {
    OFFSET -2.69724 7.43032 -0.144315
    CHANNELS 3 Zrotation Xrotation Yrotation
    JOINT Spine
    {
      OFFSET -0.0310711 10.7595 1.96963
      CHANNELS 3 Zrotation Xrotation Yrotation
      JOINT Spine1
      {
        OFFSET 19.9056 3.91189 0.764692
        CHANNELS 3 Zrotation Xrotation Yrotation
        JOINT Neck
        {
          OFFSET 25.9749 7.03908 -0.130764
          CHANNELS 3 Zrotation Xrotation Yrotation
          JOINT Head
          {
            OFFSET 9.52751 0.295786 -0.907742
            CHANNELS 3 Zrotation Xrotation Yrotation
            End Site
            {
              OFFSET 16.4037 0.713936 2.7358
            }
          }
        }
        JOINT LeftShoulder
        {
          OFFSET 17.7449 4.33886 11.7777
          CHANNELS 3 Zrotation Xrotation Yrotation
          JOINT LeftArm
          {
            OFFSET 0.911315 1.27913 9.80584
            CHANNELS 3 Zrotation Xrotation Yrotation
            JOINT LeftForeArm
            {
              OFFSET 28.6126 1.18197 -3.53199
              CHANNELS 3 Zrotation Xrotation Yrotation
              JOINT LeftHand
              {
                OFFSET 27.5088 0.0218783 0.327423
                CHANNELS 3 Zrotation Xrotation Yrotation
                End Site
                {
                  OFFSET 18.6038 -0.000155887 0.382096
                }
              }
            }
          }
        }
        JOINT RightShoulder
        {
          OFFSET 17.1009 2.89543 -12.2328
          CHANNELS 3 Zrotation Xrotation Yrotation
          JOINT RightArm
          {
            OFFSET 1.4228 0.178766 -10.211
            CHANNELS 3 Zrotation Xrotation Yrotation
            JOINT RightForeArm
            {
              OFFSET 28.733 1.87905 2.64907
              CHANNELS 3 Zrotation Xrotation Yrotation
              JOINT RightHand
              {
                OFFSET 27.4588 0.290562 -0.101845
                CHANNELS 3 Zrotation Xrotation Yrotation
                End Site
                {
                  OFFSET 17.8396 -0.255518 -0.000602873
                }
              }
            }
          }
        }
      }
    }
  }
  JOINT LeftUpLeg
  {
    OFFSET -5.61296 -2.22332 -10.2353
    CHANNELS 3 Zrotation Xrotation Yrotation
    JOINT LeftLeg
    {
      OFFSET 2.56703 -44.7417 -7.93097
      CHANNELS 3 Zrotation Xrotation Yrotation
      JOINT LeftFoot
      {
        OFFSET 3.16933 -46.5642 -3.96578
        CHANNELS 3 Zrotation Xrotation Yrotation
        JOINT LeftToeBase
        {
          OFFSET 0.346054 -6.02161 12.8035
          CHANNELS 3 Zrotation Xrotation Yrotation
          End Site
          {
            OFFSET 0.134235 -1.35082 5.13018
          }
        }
      }
    }
  }
  JOINT RightUpLeg
  {
    OFFSET -5.7928 -1.72406 10.6446
    CHANNELS 3 Zrotation Xrotation Yrotation
    JOINT RightLeg
    {
      OFFSET -2.57161 -44.7178 -7.85259
      CHANNELS 3 Zrotation Xrotation Yrotation
      JOINT RightFoot
      {
        OFFSET -3.10148 -46.5936 -4.03391
        CHANNELS 3 Zrotation Xrotation Yrotation
        JOINT RightToeBase
        {
          OFFSET -0.0828122 -6.13587 12.8035
          CHANNELS 3 Zrotation Xrotation Yrotation
          End Site
          {
            OFFSET -0.131328 -1.35082 5.13018
          }
        }
      }
    }
  }
}
MOTION
Frames:	8
Frame Time:	0.0333333
-286.85 86.6549 311.293 75.9729 45.8376 -2.72713 -70.1915 0 88.8779 146.493 49.663 -76.4141 -31.1292 24.13 2.19158 -165.918 19.9586 157.912 -151.412 53.8763 148.474 1.19507 11.1487 -10.3966 -47.2932 46.9401 -142.083 17.5682 15.7689 -45.2064 19.1613 -0.871776 -3.40539 3.41149 -16.9407 32.8095 -46.2736 -56.3567 79.1785 21.4209 -16.0999 50.7363 6.26439 0.132314 2.31632 -61.1426 -12.6281 104.5 -6.28812 61.8973 -6.71462 7.72741 9.32579 -0.995929 -14.4242 -53.511 3.72831 -22.7882 1.80093 103.736 165.059 72.7205 -163.374 -8.21143 -3.02026 1.16736 5.96315 -6.05596 -12.0107 
-274.88 88.0506 300.979 75.1396 48.5155 5.1785 -70.1915 0 88.8779 143.958 54.9197 -67.6802 -20.9018 22.1977 4.12696 -164.573 21.0058 157.683 -145.929 53.4485 145.869 0.679055 8.75875 -7.36165 -48.7725 50.2181 -146.998 17.3928 9.41934 -59.2079 17.1607 -0.895355 -4.15474 2.56688 -14.8656 29.419 -44.0306 -58.8737 83.2962 17.4535 -13.7135 48.0502 4.78634 0.108198 2.60462 -69.2444 -5.48321 96.5176 -6.82182 62.8148 -8.65561 1.18837 2.29683 -0.115134 -8.65485 -35.1422 7.33734 -16.6002 3.84155 95.447 42.8311 85.6508 -44.2105 -7.21435 -4.34636 1.08345 7.21277 -8.02007 -14.5779 
-263.43 89.8427 290.782 71.6412 51.4971 12.2576 -70.1915 0 88.8779 134.922 61.1168 -54.2028 -9.87103 20.7615 3.94572 -165.344 21.6459 158.046 -145.766 54.1002 145.927 0.338077 7.60382 -5.01548 -54.4057 52.5068 -145.112 24.9263 7.12394 -73.7151 13.1844 -1.1231 -7.81497 2.09925 -13.6359 27.1493 -42.6442 -59.8033 88.1541 15.6743 -12.6911 46.3843 3.34862 0.0698809 2.55941 -69.9981 -4.88123 84.245 -7.31883 65.8312 -4.43479 0.904656 5.88597 0.15237 -5.28218 -17.6479 10.7651 -16.5626 1.87745 89.6418 3.37959 61.3425 -4.80624 -4.7934 -3.44148 0.852709 4.37356 -4.0159 -8.75404 
-253.059 89.8482 280.608 70.6691 53.4856 16.0926 -70.1915 0 88.8779 125.6 64.8982 -40.1696 0.717755 20.2564 1.98555 -164.368 21.6107 158.961 -146.048 54.8751 149.217 0.370865 6.70501 -4.9982 -62.6982 51.5424 -135.633 23.9651 1.36458 -86.995 11.3453 -1.02099 -8.33135 1.73097 -11.7965 26.0923 -43.3026 -60.0198 91.8588 13.7866 -11.5227 44.4293 3.40953 0.0732582 2.63444 -66.6581 -6.30812 76.0676 -11.6551 75.8953 9.05802 3.31814 8.50137 -0.149175 -6.94944 -28.0077 14.1763 -18.9269 0.0710354 84.2374 1.68366 46.4683 -1.79297 -3.00693 1.90863 0.447991 -1.69374 1.62188 2.81689 
-242.298 88.6067 270.031 75.3752 53.95 13.6066 -70.1915 0 88.8779 122.167 66.9271 -34.4531 7.37752 20.7048 1.24454 -160.816 21.9503 160.664 -145.674 56.4105 153.532 0.930941 4.4942 -8.69326 -75.8208 48.3525 -118.078 16.4525 -1.31112 -96.1834 10.9628 -0.676143 -5.20431 1.37991 -9.2569 25.9047 -44.5602 -58.1979 95.0301 11.9407 -10.3081 42.1797 3.55993 0.068928 2.31196 -60.8243 -5.9674 76.0296 -67.1123 86.521 68.3522 4.77595 8.44357 -0.432439 -7.54897 -32.1031 14.0143 -22.704 0.410993 80.0901 2.66052 50.357 1.90022 -4.11623 0.158405 0.662992 0.191074 16.6682 -10.7785 
-231.256 86.5509 260.11 80.8619 51.2717 11.2492 -70.1915 0 88.8779 128.722 68.082 -38.1593 7.45997 22.606 2.73875 -154.715 22.2802 163.314 -145.252 58.2386 159.566 1.59675 1.51932 -14.9794 -86.8196 40.3003 -101.263 11.7416 -0.655164 -95.767 11.0107 -0.613064 -4.54169 1.03423 -6.28754 26.7134 -48.8436 -54.9032 95.1982 9.83902 -8.85664 38.8444 3.09203 0.0103211 0.0970468 -50.3966 -2.61678 77.9856 -157.401 79.709 157.512 5.35931 6.66387 -0.589597 -8.50578 -37.0651 12.2901 -25.1162 4.63314 77.0176 6.56658 66.2334 0.885427 -6.02718 -1.62458 0.931971 7.25941 3.96818 -21.336 
-220.406 85.6927 250.195 83.0647 46.714 14.9487 -70.1915 0 88.8779 134.684 69.5784 -36.5146 8.23453 24.4573 2.82872 -151.825 22.3667 165.208 -145.799 58.9218 162.017 2.08765 -0.0579004 -21.3164 -92.3892 33.9947 -92.0543 12.267 1.19086 -84.9308 10.9941 -0.601844 -4.4381 0.617197 -2.9695 28.4696 -54.7836 -50.1932 94.8397 8.17438 -7.57931 35.4321 3.70487 -0.00483991 -0.558111 -36.3356 2.60374 75.4652 -161.516 76.5845 160.359 6.70404 4.64343 -0.855885 -9.52127 -40.434 9.62478 -30.4138 12.7775 74.2244 12.435 74.0438 -0.646676 -5.51119 -5.44028 0.965767 9.39239 -7.2665 -22.4133 
-209.198 86.6145 239.587 84.6072 48.0815 11.3446 -70.1915 0 88.8779 134.295 69.5503 -39.6544 5.58964 23.8225 5.04537 -148.32 22.5125 166.477 -148.341 60.0059 165.193 2.44404 0.925891 -23.9217 -89.1642 31.9926 -92.7406 8.4501 2.67405 -69.1986 8.08633 -0.494509 -5.11972 0.298303 -0.907256 27.0968 -53.9498 -49.0563 97.6777 6.75131 -5.61424 35.2319 6.03002 0.0958562 1.6604 -27.6073 -3.0279 76.8007 -119.593 86.0895 120.535 6.00369 5.12413 -0.734278 -9.53411 -42.2 11.6954 -41.8452 10.5132 74.2626 16.2657 76.8716 -2.8703 -7.86356 -4.51433 1.13861 10.9803 -21.841 -17.2673 
